<svg xmlns="http://www.w3.org/2000/svg" xmlns:xlink="http://www.w3.org/1999/xlink" width="200" zoomAndPan="magnify" viewBox="0 0 150 44.999999" height="60" preserveAspectRatio="xMidYMid meet" version="1.0"><defs><clipPath id="e69edbe1dd"><path d="M 72.269531 19.765625 L 77.519531 19.765625 L 77.519531 25.015625 L 72.269531 25.015625 Z M 72.269531 19.765625 " clip-rule="nonzero"/></clipPath></defs><g clip-path="url(#e69edbe1dd)"><path fill="#000000" d="M 77.40625 21.78125 C 77.40625 21.777344 77.40625 21.773438 77.40625 21.769531 L 77.511719 21.039062 C 77.511719 21.035156 77.511719 21.027344 77.511719 21.023438 C 77.511719 20.976562 77.472656 20.9375 77.425781 20.9375 L 76.761719 20.9375 C 76.761719 20.9375 76.757812 20.9375 76.757812 20.9375 L 76.09375 20.9375 C 76.089844 20.9375 76.089844 20.9375 76.089844 20.9375 L 75.425781 20.9375 C 75.421875 20.9375 75.421875 20.9375 75.421875 20.9375 L 74.757812 20.9375 C 74.757812 20.9375 74.753906 20.9375 74.753906 20.9375 L 74.089844 20.9375 C 74.089844 20.9375 74.085938 20.9375 74.085938 20.9375 L 73.511719 20.9375 L 73.15625 20.007812 C 73.148438 19.984375 73.125 19.964844 73.101562 19.957031 L 72.390625 19.777344 C 72.347656 19.765625 72.300781 19.792969 72.289062 19.835938 C 72.277344 19.882812 72.304688 19.929688 72.347656 19.941406 L 73.015625 20.109375 L 73.496094 21.371094 L 73.933594 22.527344 C 73.933594 22.53125 73.9375 22.535156 73.9375 22.539062 L 74.007812 22.722656 C 74.007812 22.726562 74.011719 22.730469 74.011719 22.730469 L 74.207031 23.242188 L 74.007812 23.433594 C 73.835938 23.597656 73.726562 23.753906 73.675781 23.886719 C 73.644531 23.972656 73.636719 24.050781 73.652344 24.121094 C 73.667969 24.195312 73.714844 24.257812 73.789062 24.296875 C 73.8125 24.308594 73.839844 24.320312 73.871094 24.332031 C 73.808594 24.402344 73.769531 24.496094 73.769531 24.601562 C 73.769531 24.710938 73.8125 24.8125 73.882812 24.886719 L 73.890625 24.894531 C 73.964844 24.96875 74.066406 25.015625 74.179688 25.015625 C 74.296875 25.015625 74.398438 24.96875 74.472656 24.894531 C 74.546875 24.816406 74.59375 24.714844 74.59375 24.601562 C 74.59375 24.507812 74.5625 24.421875 74.507812 24.351562 L 76.269531 24.351562 C 76.222656 24.417969 76.191406 24.503906 76.191406 24.59375 C 76.191406 24.707031 76.234375 24.804688 76.308594 24.878906 L 76.3125 24.886719 C 76.386719 24.960938 76.492188 25.007812 76.605469 25.007812 C 76.71875 25.007812 76.820312 24.960938 76.894531 24.886719 C 76.96875 24.8125 77.015625 24.707031 77.015625 24.59375 C 77.015625 24.503906 76.988281 24.417969 76.9375 24.351562 L 77.09375 24.351562 C 77.140625 24.351562 77.179688 24.3125 77.179688 24.265625 C 77.179688 24.21875 77.140625 24.183594 77.09375 24.183594 C 77.09375 24.183594 74.039062 24.183594 74.039062 24.183594 C 73.964844 24.183594 73.910156 24.171875 73.871094 24.148438 C 73.839844 24.132812 73.824219 24.109375 73.816406 24.082031 C 73.808594 24.046875 73.8125 24 73.832031 23.945312 C 73.875 23.835938 73.972656 23.699219 74.125 23.554688 L 74.34375 23.347656 L 74.757812 23.304688 C 74.761719 23.304688 74.765625 23.304688 74.769531 23.304688 L 75.425781 23.238281 C 75.429688 23.238281 75.433594 23.238281 75.4375 23.238281 L 76.09375 23.171875 C 76.097656 23.171875 76.101562 23.171875 76.105469 23.171875 L 76.761719 23.105469 C 76.765625 23.105469 76.769531 23.105469 76.773438 23.101562 L 77.15625 23.066406 C 77.195312 23.0625 77.230469 23.03125 77.234375 22.992188 L 77.300781 22.519531 C 77.300781 22.515625 77.300781 22.511719 77.300781 22.507812 Z M 74.351562 24.773438 C 74.308594 24.816406 74.25 24.84375 74.179688 24.84375 C 74.113281 24.84375 74.054688 24.816406 74.007812 24.773438 L 74.003906 24.769531 C 73.964844 24.726562 73.9375 24.667969 73.9375 24.601562 C 73.9375 24.535156 73.964844 24.472656 74.007812 24.429688 C 74.054688 24.386719 74.113281 24.359375 74.179688 24.359375 C 74.25 24.359375 74.308594 24.386719 74.351562 24.429688 L 74.355469 24.433594 C 74.398438 24.476562 74.425781 24.535156 74.425781 24.601562 C 74.425781 24.667969 74.398438 24.730469 74.351562 24.773438 Z M 76.777344 24.421875 L 76.78125 24.425781 C 76.820312 24.46875 76.847656 24.527344 76.847656 24.59375 C 76.847656 24.660156 76.820312 24.722656 76.777344 24.765625 C 76.730469 24.808594 76.671875 24.835938 76.605469 24.835938 C 76.535156 24.835938 76.476562 24.808594 76.433594 24.765625 L 76.429688 24.761719 C 76.386719 24.71875 76.359375 24.660156 76.359375 24.59375 C 76.359375 24.527344 76.386719 24.464844 76.433594 24.421875 C 76.476562 24.378906 76.535156 24.351562 76.605469 24.351562 C 76.671875 24.351562 76.730469 24.378906 76.777344 24.421875 Z M 74.359375 23.175781 L 74.171875 22.683594 L 74.171875 22.585938 L 74.671875 22.585938 L 74.671875 23.144531 Z M 76.007812 21.679688 L 75.507812 21.679688 L 75.507812 21.109375 L 76.007812 21.109375 C 76.007812 21.21875 76.007812 21.433594 76.007812 21.679688 Z M 76.175781 21.109375 L 76.675781 21.109375 L 76.675781 21.679688 L 76.175781 21.679688 Z M 75.507812 21.847656 L 76.007812 21.847656 C 76.007812 22.035156 76.007812 22.234375 76.007812 22.417969 L 75.507812 22.417969 Z M 75.339844 22.417969 L 74.839844 22.417969 L 74.839844 21.847656 L 75.339844 21.847656 Z M 75.339844 21.679688 L 74.839844 21.679688 L 74.839844 21.109375 L 75.339844 21.109375 Z M 74.671875 21.679688 L 74.171875 21.679688 L 74.171875 21.109375 L 74.671875 21.109375 Z M 74.671875 21.847656 L 74.671875 22.417969 L 74.171875 22.417969 L 74.171875 21.847656 Z M 74.003906 22.234375 L 73.855469 21.847656 L 74.003906 21.847656 Z M 74.839844 22.585938 L 75.339844 22.585938 L 75.339844 23.078125 L 74.839844 23.125 Z M 75.507812 22.585938 L 76.007812 22.585938 C 76.007812 22.769531 76.007812 22.925781 76.007812 23.011719 L 75.507812 23.058594 Z M 76.175781 22.585938 L 76.675781 22.585938 L 76.675781 22.945312 L 76.175781 22.992188 Z M 76.175781 22.417969 L 76.175781 21.847656 L 76.675781 21.847656 L 76.675781 22.417969 Z M 76.84375 21.847656 L 77.226562 21.847656 L 77.144531 22.417969 L 76.84375 22.417969 Z M 77.25 21.679688 L 76.84375 21.679688 L 76.84375 21.109375 L 77.328125 21.109375 Z M 74.003906 21.109375 L 74.003906 21.679688 L 73.792969 21.679688 L 73.652344 21.3125 L 73.574219 21.109375 Z M 76.84375 22.925781 L 76.84375 22.585938 L 77.121094 22.585938 L 77.078125 22.902344 Z M 76.84375 22.925781 " fill-opacity="1" fill-rule="nonzero"/></g></svg>