<svg xmlns="http://www.w3.org/2000/svg" xmlns:xlink="http://www.w3.org/1999/xlink" width="300" zoomAndPan="magnify" viewBox="0 0 224.87999 74.999997" height="100" preserveAspectRatio="xMidYMid meet" version="1.0"><defs><g/><clipPath id="790bb84d6e"><path d="M 0 0.0195312 L 224.761719 0.0195312 L 224.761719 74.980469 L 0 74.980469 Z M 0 0.0195312 " clip-rule="nonzero"/></clipPath><clipPath id="3e9166651d"><path d="M 92.839844 17.898438 L 132.195312 17.898438 L 132.195312 57.253906 L 92.839844 57.253906 Z M 92.839844 17.898438 " clip-rule="nonzero"/></clipPath><clipPath id="937d07c7e5"><path d="M 96.585938 17.898438 L 128.292969 17.898438 C 130.363281 17.898438 132.039062 19.578125 132.039062 21.648438 L 132.039062 53.351562 C 132.039062 55.421875 130.363281 57.101562 128.292969 57.101562 L 96.585938 57.101562 C 94.515625 57.101562 92.839844 55.421875 92.839844 53.351562 L 92.839844 21.648438 C 92.839844 19.578125 94.515625 17.898438 96.585938 17.898438 " clip-rule="nonzero"/></clipPath><clipPath id="e7bcb37aaf"><path d="M 100.859375 22.507812 L 124.097656 22.507812 L 124.097656 52.492188 L 100.859375 52.492188 Z M 100.859375 22.507812 " clip-rule="nonzero"/></clipPath></defs><g clip-path="url(#790bb84d6e)"><path fill="#ffffff" d="M 0 0.0195312 L 224.878906 0.0195312 L 224.878906 82.476562 L 0 82.476562 Z M 0 0.0195312 " fill-opacity="1" fill-rule="nonzero"/><path fill="#ffffff" d="M 0 0.0195312 L 224.878906 0.0195312 L 224.878906 74.980469 L 0 74.980469 Z M 0 0.0195312 " fill-opacity="1" fill-rule="nonzero"/><path fill="#323b60" d="M 0 0.0195312 L 224.878906 0.0195312 L 224.878906 74.980469 L 0 74.980469 Z M 0 0.0195312 " fill-opacity="1" fill-rule="nonzero"/></g><g clip-path="url(#3e9166651d)"><g clip-path="url(#937d07c7e5)"><path fill="#5b4282" d="M 92.839844 17.898438 L 132.195312 17.898438 L 132.195312 57.253906 L 92.839844 57.253906 Z M 92.839844 17.898438 " fill-opacity="1" fill-rule="nonzero"/></g></g><g clip-path="url(#e7bcb37aaf)"><path fill="#ffffff" d="M 119.046875 36.53125 C 121.210938 35.359375 122.703125 32.945312 122.703125 30.335938 C 122.703125 25.511719 119.132812 22.515625 113.390625 22.515625 L 101.542969 22.515625 C 101.164062 22.515625 100.859375 22.820312 100.859375 23.199219 L 100.859375 51.800781 C 100.859375 52.179688 101.164062 52.484375 101.542969 52.484375 L 113.664062 52.484375 C 120.097656 52.484375 124.097656 49.109375 124.097656 43.675781 C 124.097656 40.277344 122.125 37.578125 119.046875 36.53125 Z M 107.011719 27.285156 L 111.792969 27.285156 C 114.8125 27.285156 116.578125 28.789062 116.578125 31.371094 C 116.578125 34.015625 114.699219 35.457031 111.152344 35.457031 L 107.011719 35.457031 Z M 112.222656 47.714844 L 107.011719 47.714844 L 107.011719 39.542969 L 112.027344 39.542969 C 115.898438 39.542969 117.945312 40.9375 117.945312 43.582031 C 117.945312 46.285156 115.960938 47.714844 112.222656 47.714844 Z M 112.222656 47.714844 " fill-opacity="1" fill-rule="nonzero"/></g><g fill="#ffffff" fill-opacity="1"><g transform="translate(84.611093, 15.250953)"><g><path d="M 6.3125 -3.96875 C 6.695312 -3.851562 6.992188 -3.664062 7.203125 -3.40625 C 7.421875 -3.144531 7.53125 -2.804688 7.53125 -2.390625 C 7.53125 -1.617188 7.238281 -1.023438 6.65625 -0.609375 C 6.070312 -0.203125 5.269531 0 4.25 0 L 0.6875 0 L 2.21875 -7.6875 L 5.5 -7.6875 C 6.25 -7.6875 6.828125 -7.546875 7.234375 -7.265625 C 7.648438 -6.992188 7.859375 -6.585938 7.859375 -6.046875 C 7.859375 -5.523438 7.71875 -5.082031 7.4375 -4.71875 C 7.15625 -4.363281 6.78125 -4.113281 6.3125 -3.96875 Z M 2.890625 -7.015625 L 2.328125 -4.234375 L 4.78125 -4.234375 C 5.457031 -4.234375 6 -4.375 6.40625 -4.65625 C 6.820312 -4.945312 7.03125 -5.363281 7.03125 -5.90625 C 7.03125 -6.28125 6.882812 -6.554688 6.59375 -6.734375 C 6.300781 -6.921875 5.882812 -7.015625 5.34375 -7.015625 Z M 4.3125 -0.671875 C 5.09375 -0.671875 5.691406 -0.816406 6.109375 -1.109375 C 6.523438 -1.398438 6.734375 -1.820312 6.734375 -2.375 C 6.734375 -2.800781 6.582031 -3.101562 6.28125 -3.28125 C 5.988281 -3.46875 5.539062 -3.5625 4.9375 -3.5625 L 2.203125 -3.5625 L 1.625 -0.671875 Z M 4.3125 -0.671875 "/></g></g></g><g fill="#ffffff" fill-opacity="1"><g transform="translate(92.894816, 15.250953)"><g><path d="M 3.09375 0.0625 C 2.5625 0.0625 2.097656 -0.0351562 1.703125 -0.234375 C 1.304688 -0.441406 1 -0.726562 0.78125 -1.09375 C 0.570312 -1.46875 0.46875 -1.898438 0.46875 -2.390625 C 0.46875 -3.046875 0.609375 -3.632812 0.890625 -4.15625 C 1.171875 -4.675781 1.566406 -5.082031 2.078125 -5.375 C 2.585938 -5.675781 3.160156 -5.828125 3.796875 -5.828125 C 4.609375 -5.828125 5.25 -5.601562 5.71875 -5.15625 C 6.1875 -4.71875 6.421875 -4.128906 6.421875 -3.390625 C 6.421875 -2.734375 6.273438 -2.140625 5.984375 -1.609375 C 5.703125 -1.085938 5.304688 -0.675781 4.796875 -0.375 C 4.296875 -0.0820312 3.726562 0.0625 3.09375 0.0625 Z M 3.140625 -0.640625 C 3.617188 -0.640625 4.046875 -0.753906 4.421875 -0.984375 C 4.804688 -1.210938 5.101562 -1.535156 5.3125 -1.953125 C 5.53125 -2.367188 5.640625 -2.832031 5.640625 -3.34375 C 5.640625 -3.90625 5.472656 -4.34375 5.140625 -4.65625 C 4.804688 -4.976562 4.34375 -5.140625 3.75 -5.140625 C 3.269531 -5.140625 2.835938 -5.019531 2.453125 -4.78125 C 2.078125 -4.550781 1.78125 -4.226562 1.5625 -3.8125 C 1.34375 -3.40625 1.234375 -2.941406 1.234375 -2.421875 C 1.234375 -1.859375 1.398438 -1.421875 1.734375 -1.109375 C 2.066406 -0.796875 2.535156 -0.640625 3.140625 -0.640625 Z M 3.140625 -0.640625 "/></g></g></g><g fill="#ffffff" fill-opacity="1"><g transform="translate(99.783263, 15.250953)"><g><path d="M 3.09375 0.0625 C 2.5625 0.0625 2.097656 -0.0351562 1.703125 -0.234375 C 1.304688 -0.441406 1 -0.726562 0.78125 -1.09375 C 0.570312 -1.46875 0.46875 -1.898438 0.46875 -2.390625 C 0.46875 -3.046875 0.609375 -3.632812 0.890625 -4.15625 C 1.171875 -4.675781 1.566406 -5.082031 2.078125 -5.375 C 2.585938 -5.675781 3.160156 -5.828125 3.796875 -5.828125 C 4.609375 -5.828125 5.25 -5.601562 5.71875 -5.15625 C 6.1875 -4.71875 6.421875 -4.128906 6.421875 -3.390625 C 6.421875 -2.734375 6.273438 -2.140625 5.984375 -1.609375 C 5.703125 -1.085938 5.304688 -0.675781 4.796875 -0.375 C 4.296875 -0.0820312 3.726562 0.0625 3.09375 0.0625 Z M 3.140625 -0.640625 C 3.617188 -0.640625 4.046875 -0.753906 4.421875 -0.984375 C 4.804688 -1.210938 5.101562 -1.535156 5.3125 -1.953125 C 5.53125 -2.367188 5.640625 -2.832031 5.640625 -3.34375 C 5.640625 -3.90625 5.472656 -4.34375 5.140625 -4.65625 C 4.804688 -4.976562 4.34375 -5.140625 3.75 -5.140625 C 3.269531 -5.140625 2.835938 -5.019531 2.453125 -4.78125 C 2.078125 -4.550781 1.78125 -4.226562 1.5625 -3.8125 C 1.34375 -3.40625 1.234375 -2.941406 1.234375 -2.421875 C 1.234375 -1.859375 1.398438 -1.421875 1.734375 -1.109375 C 2.066406 -0.796875 2.535156 -0.640625 3.140625 -0.640625 Z M 3.140625 -0.640625 "/></g></g></g><g fill="#ffffff" fill-opacity="1"><g transform="translate(106.671711, 15.250953)"><g><path d="M 1.765625 -1.75 C 1.734375 -1.570312 1.71875 -1.453125 1.71875 -1.390625 C 1.71875 -0.867188 2 -0.609375 2.5625 -0.609375 C 2.882812 -0.609375 3.179688 -0.707031 3.453125 -0.90625 L 3.640625 -0.3125 C 3.304688 -0.0625 2.875 0.0625 2.34375 0.0625 C 1.914062 0.0625 1.570312 -0.0507812 1.3125 -0.28125 C 1.0625 -0.519531 0.9375 -0.847656 0.9375 -1.265625 C 0.9375 -1.421875 0.953125 -1.570312 0.984375 -1.71875 L 1.65625 -5.125 L 0.640625 -5.125 L 0.765625 -5.78125 L 1.796875 -5.78125 L 2.046875 -7.046875 L 2.828125 -7.046875 L 2.578125 -5.78125 L 4.328125 -5.78125 L 4.203125 -5.125 L 2.4375 -5.125 Z M 1.765625 -1.75 "/></g></g></g><g fill="#ffffff" fill-opacity="1"><g transform="translate(111.132172, 15.250953)"><g><path d="M 2.203125 0.0625 C 1.734375 0.0625 1.285156 -0.00390625 0.859375 -0.140625 C 0.441406 -0.273438 0.125 -0.441406 -0.09375 -0.640625 L 0.28125 -1.265625 C 0.5 -1.078125 0.785156 -0.921875 1.140625 -0.796875 C 1.503906 -0.679688 1.882812 -0.625 2.28125 -0.625 C 2.820312 -0.625 3.238281 -0.710938 3.53125 -0.890625 C 3.832031 -1.078125 3.984375 -1.332031 3.984375 -1.65625 C 3.984375 -1.84375 3.921875 -1.988281 3.796875 -2.09375 C 3.679688 -2.207031 3.535156 -2.289062 3.359375 -2.34375 C 3.179688 -2.40625 2.925781 -2.472656 2.59375 -2.546875 C 2.1875 -2.640625 1.859375 -2.726562 1.609375 -2.8125 C 1.359375 -2.894531 1.144531 -3.03125 0.96875 -3.21875 C 0.800781 -3.414062 0.71875 -3.679688 0.71875 -4.015625 C 0.71875 -4.566406 0.941406 -5.003906 1.390625 -5.328125 C 1.847656 -5.660156 2.457031 -5.828125 3.21875 -5.828125 C 3.59375 -5.828125 3.957031 -5.773438 4.3125 -5.671875 C 4.664062 -5.578125 4.953125 -5.445312 5.171875 -5.28125 L 4.84375 -4.65625 C 4.625 -4.820312 4.363281 -4.945312 4.0625 -5.03125 C 3.769531 -5.113281 3.46875 -5.15625 3.15625 -5.15625 C 2.625 -5.15625 2.210938 -5.054688 1.921875 -4.859375 C 1.628906 -4.671875 1.484375 -4.414062 1.484375 -4.09375 C 1.484375 -3.90625 1.546875 -3.75 1.671875 -3.625 C 1.796875 -3.507812 1.953125 -3.421875 2.140625 -3.359375 C 2.328125 -3.304688 2.582031 -3.25 2.90625 -3.1875 C 3.300781 -3.09375 3.617188 -3.003906 3.859375 -2.921875 C 4.109375 -2.835938 4.316406 -2.703125 4.484375 -2.515625 C 4.660156 -2.328125 4.75 -2.070312 4.75 -1.75 C 4.75 -1.1875 4.515625 -0.742188 4.046875 -0.421875 C 3.585938 -0.0976562 2.972656 0.0625 2.203125 0.0625 Z M 2.203125 0.0625 "/></g></g></g><g fill="#ffffff" fill-opacity="1"><g transform="translate(116.504503, 15.250953)"><g><path d="M 1.765625 -1.75 C 1.734375 -1.570312 1.71875 -1.453125 1.71875 -1.390625 C 1.71875 -0.867188 2 -0.609375 2.5625 -0.609375 C 2.882812 -0.609375 3.179688 -0.707031 3.453125 -0.90625 L 3.640625 -0.3125 C 3.304688 -0.0625 2.875 0.0625 2.34375 0.0625 C 1.914062 0.0625 1.570312 -0.0507812 1.3125 -0.28125 C 1.0625 -0.519531 0.9375 -0.847656 0.9375 -1.265625 C 0.9375 -1.421875 0.953125 -1.570312 0.984375 -1.71875 L 1.65625 -5.125 L 0.640625 -5.125 L 0.765625 -5.78125 L 1.796875 -5.78125 L 2.046875 -7.046875 L 2.828125 -7.046875 L 2.578125 -5.78125 L 4.328125 -5.78125 L 4.203125 -5.125 L 2.4375 -5.125 Z M 1.765625 -1.75 "/></g></g></g><g fill="#ffffff" fill-opacity="1"><g transform="translate(120.964963, 15.250953)"><g><path d="M 2.203125 -4.71875 C 2.460938 -5.09375 2.785156 -5.367188 3.171875 -5.546875 C 3.554688 -5.734375 4.023438 -5.828125 4.578125 -5.828125 L 4.4375 -5.0625 L 4.21875 -5.078125 C 3.59375 -5.078125 3.082031 -4.894531 2.6875 -4.53125 C 2.289062 -4.175781 2.019531 -3.644531 1.875 -2.9375 L 1.296875 0 L 0.515625 0 L 1.65625 -5.78125 L 2.40625 -5.78125 Z M 2.203125 -4.71875 "/></g></g></g><g fill="#ffffff" fill-opacity="1"><g transform="translate(125.370498, 15.250953)"><g><path d="M 6.9375 -5.78125 L 5.78125 0 L 5.046875 0 L 5.234375 -0.90625 C 4.953125 -0.601562 4.617188 -0.363281 4.234375 -0.1875 C 3.859375 -0.0195312 3.441406 0.0625 2.984375 0.0625 C 2.484375 0.0625 2.039062 -0.0351562 1.65625 -0.234375 C 1.28125 -0.429688 0.988281 -0.710938 0.78125 -1.078125 C 0.570312 -1.453125 0.46875 -1.890625 0.46875 -2.390625 C 0.46875 -3.046875 0.609375 -3.632812 0.890625 -4.15625 C 1.171875 -4.675781 1.554688 -5.082031 2.046875 -5.375 C 2.546875 -5.675781 3.101562 -5.828125 3.71875 -5.828125 C 4.269531 -5.828125 4.734375 -5.71875 5.109375 -5.5 C 5.484375 -5.28125 5.753906 -4.96875 5.921875 -4.5625 L 6.15625 -5.78125 Z M 3.140625 -0.640625 C 3.617188 -0.640625 4.046875 -0.753906 4.421875 -0.984375 C 4.804688 -1.210938 5.101562 -1.535156 5.3125 -1.953125 C 5.53125 -2.367188 5.640625 -2.832031 5.640625 -3.34375 C 5.640625 -3.90625 5.472656 -4.34375 5.140625 -4.65625 C 4.804688 -4.976562 4.34375 -5.140625 3.75 -5.140625 C 3.269531 -5.140625 2.835938 -5.019531 2.453125 -4.78125 C 2.078125 -4.550781 1.78125 -4.226562 1.5625 -3.8125 C 1.34375 -3.40625 1.234375 -2.941406 1.234375 -2.421875 C 1.234375 -1.859375 1.398438 -1.421875 1.734375 -1.109375 C 2.066406 -0.796875 2.535156 -0.640625 3.140625 -0.640625 Z M 3.140625 -0.640625 "/></g></g></g><g fill="#ffffff" fill-opacity="1"><g transform="translate(132.819259, 15.250953)"><g><path d="M 4.46875 -5.828125 C 4.957031 -5.828125 5.394531 -5.726562 5.78125 -5.53125 C 6.164062 -5.332031 6.460938 -5.046875 6.671875 -4.671875 C 6.890625 -4.304688 7 -3.878906 7 -3.390625 C 7 -2.734375 6.859375 -2.140625 6.578125 -1.609375 C 6.296875 -1.085938 5.90625 -0.675781 5.40625 -0.375 C 4.90625 -0.0820312 4.34375 0.0625 3.71875 0.0625 C 3.175781 0.0625 2.71875 -0.046875 2.34375 -0.265625 C 1.96875 -0.484375 1.695312 -0.796875 1.53125 -1.203125 L 0.875 2.125 L 0.09375 2.125 L 1.65625 -5.78125 L 2.40625 -5.78125 L 2.21875 -4.859375 C 2.5 -5.171875 2.828125 -5.410156 3.203125 -5.578125 C 3.585938 -5.742188 4.007812 -5.828125 4.46875 -5.828125 Z M 3.71875 -0.640625 C 4.1875 -0.640625 4.609375 -0.753906 4.984375 -0.984375 C 5.367188 -1.210938 5.664062 -1.53125 5.875 -1.9375 C 6.09375 -2.351562 6.203125 -2.820312 6.203125 -3.34375 C 6.203125 -3.90625 6.035156 -4.34375 5.703125 -4.65625 C 5.367188 -4.976562 4.90625 -5.140625 4.3125 -5.140625 C 3.832031 -5.140625 3.398438 -5.023438 3.015625 -4.796875 C 2.640625 -4.566406 2.34375 -4.242188 2.125 -3.828125 C 1.914062 -3.410156 1.8125 -2.941406 1.8125 -2.421875 C 1.8125 -1.859375 1.976562 -1.421875 2.3125 -1.109375 C 2.644531 -0.796875 3.113281 -0.640625 3.71875 -0.640625 Z M 3.71875 -0.640625 "/></g></g></g></svg>