<svg xmlns="http://www.w3.org/2000/svg" xmlns:xlink="http://www.w3.org/1999/xlink" width="1000" zoomAndPan="magnify" viewBox="0 0 750 225" height="300" preserveAspectRatio="xMidYMid meet" version="1.0"><defs><g/><clipPath id="3795efc0c9"><path d="M 308.136719 48.398438 L 442 48.398438 L 442 177 L 308.136719 177 Z M 308.136719 48.398438 " clip-rule="nonzero"/></clipPath><clipPath id="7e20e49098"><path d="M 318.636719 48.398438 L 431.363281 48.398438 C 437.160156 48.398438 441.863281 53.097656 441.863281 58.898438 L 441.863281 166.101562 C 441.863281 171.902344 437.160156 176.601562 431.363281 176.601562 L 318.636719 176.601562 C 312.839844 176.601562 308.136719 171.902344 308.136719 166.101562 L 308.136719 58.898438 C 308.136719 53.097656 312.839844 48.398438 318.636719 48.398438 " clip-rule="nonzero"/></clipPath><clipPath id="13f15824a2"><path d="M 344.039062 69.699219 L 406 69.699219 L 406 155.5625 L 344.039062 155.5625 Z M 344.039062 69.699219 " clip-rule="nonzero"/></clipPath><clipPath id="a8b852ed00"><path d="M 389.921875 153.714844 C 393.03125 152.644531 395.816406 151.023438 398.183594 148.917969 C 400.546875 146.8125 402.460938 144.253906 403.851562 141.273438 C 405.246094 138.257812 405.960938 134.824219 405.960938 131.066406 C 405.960938 128.246094 405.570312 125.589844 404.792969 123.128906 C 404.015625 120.664062 402.914062 118.460938 401.488281 116.519531 C 400.09375 114.574219 398.410156 112.890625 396.5 111.527344 C 396.078125 111.203125 395.625 110.914062 395.167969 110.652344 C 395.398438 110.492188 395.625 110.328125 395.816406 110.167969 C 397.503906 108.871094 398.960938 107.316406 400.191406 105.566406 C 401.421875 103.816406 402.394531 101.773438 403.074219 99.570312 C 403.757812 97.367188 404.113281 94.9375 404.113281 92.347656 C 404.113281 89.007812 403.496094 85.929688 402.265625 83.144531 C 401.035156 80.359375 399.347656 77.960938 397.179688 75.984375 C 395.039062 74.007812 392.480469 72.484375 389.597656 71.382812 C 386.714844 70.3125 383.539062 69.761719 380.167969 69.761719 L 344.039062 69.761719 L 344.039062 155.367188 L 380.199219 155.367188 C 383.601562 155.300781 386.875 154.785156 389.921875 153.714844 Z M 383.3125 97.886719 C 383.019531 98.730469 382.597656 99.410156 381.984375 100.027344 C 381.398438 100.640625 380.621094 101.160156 379.683594 101.546875 C 378.742188 101.9375 377.574219 102.132812 376.183594 102.132812 L 364.03125 102.132812 L 364.03125 88.554688 L 376.929688 88.554688 C 379.132812 88.554688 380.816406 89.074219 382.078125 90.175781 C 383.214844 91.179688 383.796875 92.734375 383.796875 94.972656 C 383.796875 96.007812 383.636719 97.011719 383.3125 97.886719 Z M 385.027344 125.753906 C 385.382812 126.820312 385.578125 127.957031 385.578125 129.152344 C 385.578125 130.417969 385.382812 131.488281 384.996094 132.394531 C 384.605469 133.300781 384.121094 134.015625 383.472656 134.597656 C 382.792969 135.214844 382.046875 135.667969 381.109375 135.957031 C 380.136719 136.28125 379.035156 136.476562 377.835938 136.476562 L 364.03125 136.476562 L 364.03125 120.828125 L 377.15625 120.828125 C 378.675781 120.828125 379.972656 121.054688 381.042969 121.476562 C 382.078125 121.894531 382.890625 122.445312 383.539062 123.160156 C 384.1875 123.9375 384.671875 124.78125 385.027344 125.753906 Z M 385.027344 125.753906 " clip-rule="nonzero"/></clipPath></defs><rect x="-75" width="900" fill="#ffffff" y="-22.5" height="270" fill-opacity="1"/><rect x="-75" width="900" fill="#ffffff" y="-22.5" height="270" fill-opacity="1"/><rect x="-75" width="900" fill="#5b4282" y="-22.5" height="270" fill-opacity="1"/><g clip-path="url(#3795efc0c9)"><g clip-path="url(#7e20e49098)"><path fill="#ffffff" d="M 308.136719 48.398438 L 441.730469 48.398438 L 441.730469 176.367188 L 308.136719 176.367188 Z M 308.136719 48.398438 " fill-opacity="1" fill-rule="nonzero"/></g></g><g clip-path="url(#13f15824a2)"><g clip-path="url(#a8b852ed00)"><path fill="#5b4282" d="M 344.039062 69.699219 L 405.925781 69.699219 L 405.925781 155.238281 L 344.039062 155.238281 Z M 344.039062 69.699219 " fill-opacity="1" fill-rule="nonzero"/></g></g><g fill="#ffffff" fill-opacity="1"><g transform="translate(308.982409, 42.003854)"><g><path d="M 14.953125 -9.40625 C 15.898438 -9.144531 16.625 -8.703125 17.125 -8.078125 C 17.625 -7.453125 17.875 -6.644531 17.875 -5.65625 C 17.875 -3.832031 17.179688 -2.429688 15.796875 -1.453125 C 14.421875 -0.484375 12.519531 0 10.09375 0 L 1.609375 0 L 5.265625 -18.25 L 13.0625 -18.25 C 14.832031 -18.25 16.207031 -17.914062 17.1875 -17.25 C 18.164062 -16.59375 18.65625 -15.628906 18.65625 -14.359375 C 18.65625 -13.128906 18.316406 -12.082031 17.640625 -11.21875 C 16.960938 -10.363281 16.066406 -9.757812 14.953125 -9.40625 Z M 6.859375 -16.65625 L 5.53125 -10.03125 L 11.34375 -10.03125 C 12.957031 -10.03125 14.25 -10.375 15.21875 -11.0625 C 16.195312 -11.75 16.6875 -12.734375 16.6875 -14.015625 C 16.6875 -14.898438 16.34375 -15.5625 15.65625 -16 C 14.96875 -16.4375 13.976562 -16.65625 12.6875 -16.65625 Z M 10.25 -1.59375 C 12.082031 -1.59375 13.492188 -1.9375 14.484375 -2.625 C 15.472656 -3.320312 15.96875 -4.320312 15.96875 -5.625 C 15.96875 -6.632812 15.613281 -7.351562 14.90625 -7.78125 C 14.207031 -8.21875 13.148438 -8.4375 11.734375 -8.4375 L 5.21875 -8.4375 L 3.859375 -1.59375 Z M 10.25 -1.59375 "/></g></g></g><g fill="#ffffff" fill-opacity="1"><g transform="translate(328.633527, 42.003854)"><g><path d="M 7.328125 0.125 C 6.078125 0.125 4.976562 -0.109375 4.03125 -0.578125 C 3.09375 -1.054688 2.367188 -1.734375 1.859375 -2.609375 C 1.347656 -3.492188 1.09375 -4.519531 1.09375 -5.6875 C 1.09375 -7.226562 1.429688 -8.613281 2.109375 -9.84375 C 2.785156 -11.082031 3.726562 -12.050781 4.9375 -12.75 C 6.144531 -13.457031 7.503906 -13.8125 9.015625 -13.8125 C 10.929688 -13.8125 12.445312 -13.289062 13.5625 -12.25 C 14.6875 -11.207031 15.25 -9.800781 15.25 -8.03125 C 15.25 -6.476562 14.910156 -5.082031 14.234375 -3.84375 C 13.554688 -2.601562 12.613281 -1.628906 11.40625 -0.921875 C 10.195312 -0.222656 8.835938 0.125 7.328125 0.125 Z M 7.453125 -1.515625 C 8.578125 -1.515625 9.59375 -1.785156 10.5 -2.328125 C 11.40625 -2.878906 12.113281 -3.644531 12.625 -4.625 C 13.132812 -5.601562 13.390625 -6.703125 13.390625 -7.921875 C 13.390625 -9.265625 12.992188 -10.3125 12.203125 -11.0625 C 11.421875 -11.820312 10.316406 -12.203125 8.890625 -12.203125 C 7.753906 -12.203125 6.734375 -11.921875 5.828125 -11.359375 C 4.929688 -10.804688 4.222656 -10.035156 3.703125 -9.046875 C 3.191406 -8.066406 2.9375 -6.972656 2.9375 -5.765625 C 2.9375 -4.421875 3.332031 -3.375 4.125 -2.625 C 4.914062 -1.882812 6.023438 -1.515625 7.453125 -1.515625 Z M 7.453125 -1.515625 "/></g></g></g><g fill="#ffffff" fill-opacity="1"><g transform="translate(344.974705, 42.003854)"><g><path d="M 7.328125 0.125 C 6.078125 0.125 4.976562 -0.109375 4.03125 -0.578125 C 3.09375 -1.054688 2.367188 -1.734375 1.859375 -2.609375 C 1.347656 -3.492188 1.09375 -4.519531 1.09375 -5.6875 C 1.09375 -7.226562 1.429688 -8.613281 2.109375 -9.84375 C 2.785156 -11.082031 3.726562 -12.050781 4.9375 -12.75 C 6.144531 -13.457031 7.503906 -13.8125 9.015625 -13.8125 C 10.929688 -13.8125 12.445312 -13.289062 13.5625 -12.25 C 14.6875 -11.207031 15.25 -9.800781 15.25 -8.03125 C 15.25 -6.476562 14.910156 -5.082031 14.234375 -3.84375 C 13.554688 -2.601562 12.613281 -1.628906 11.40625 -0.921875 C 10.195312 -0.222656 8.835938 0.125 7.328125 0.125 Z M 7.453125 -1.515625 C 8.578125 -1.515625 9.59375 -1.785156 10.5 -2.328125 C 11.40625 -2.878906 12.113281 -3.644531 12.625 -4.625 C 13.132812 -5.601562 13.390625 -6.703125 13.390625 -7.921875 C 13.390625 -9.265625 12.992188 -10.3125 12.203125 -11.0625 C 11.421875 -11.820312 10.316406 -12.203125 8.890625 -12.203125 C 7.753906 -12.203125 6.734375 -11.921875 5.828125 -11.359375 C 4.929688 -10.804688 4.222656 -10.035156 3.703125 -9.046875 C 3.191406 -8.066406 2.9375 -6.972656 2.9375 -5.765625 C 2.9375 -4.421875 3.332031 -3.375 4.125 -2.625 C 4.914062 -1.882812 6.023438 -1.515625 7.453125 -1.515625 Z M 7.453125 -1.515625 "/></g></g></g><g fill="#ffffff" fill-opacity="1"><g transform="translate(361.315884, 42.003854)"><g><path d="M 4.203125 -4.140625 C 4.128906 -3.722656 4.09375 -3.4375 4.09375 -3.28125 C 4.09375 -2.0625 4.753906 -1.453125 6.078125 -1.453125 C 6.859375 -1.453125 7.5625 -1.6875 8.1875 -2.15625 L 8.625 -0.75 C 7.84375 -0.164062 6.828125 0.125 5.578125 0.125 C 4.554688 0.125 3.742188 -0.148438 3.140625 -0.703125 C 2.535156 -1.253906 2.234375 -2.019531 2.234375 -3 C 2.234375 -3.382812 2.269531 -3.738281 2.34375 -4.0625 L 3.9375 -12.140625 L 1.515625 -12.140625 L 1.796875 -13.703125 L 4.25 -13.703125 L 4.84375 -16.703125 L 6.703125 -16.703125 L 6.09375 -13.703125 L 10.265625 -13.703125 L 9.953125 -12.140625 L 5.78125 -12.140625 Z M 4.203125 -4.140625 "/></g></g></g><g fill="#ffffff" fill-opacity="1"><g transform="translate(371.897251, 42.003854)"><g><path d="M 5.21875 0.125 C 4.125 0.125 3.078125 -0.03125 2.078125 -0.34375 C 1.078125 -0.65625 0.304688 -1.050781 -0.234375 -1.53125 L 0.65625 -3 C 1.175781 -2.539062 1.859375 -2.171875 2.703125 -1.890625 C 3.554688 -1.617188 4.453125 -1.484375 5.390625 -1.484375 C 6.691406 -1.484375 7.691406 -1.695312 8.390625 -2.125 C 9.097656 -2.550781 9.453125 -3.15625 9.453125 -3.9375 C 9.453125 -4.375 9.304688 -4.722656 9.015625 -4.984375 C 8.734375 -5.242188 8.382812 -5.441406 7.96875 -5.578125 C 7.550781 -5.710938 6.945312 -5.867188 6.15625 -6.046875 C 5.195312 -6.253906 4.421875 -6.460938 3.828125 -6.671875 C 3.234375 -6.878906 2.726562 -7.207031 2.3125 -7.65625 C 1.894531 -8.113281 1.6875 -8.738281 1.6875 -9.53125 C 1.6875 -10.84375 2.222656 -11.882812 3.296875 -12.65625 C 4.378906 -13.425781 5.828125 -13.8125 7.640625 -13.8125 C 8.523438 -13.8125 9.390625 -13.691406 10.234375 -13.453125 C 11.078125 -13.222656 11.757812 -12.914062 12.28125 -12.53125 L 11.5 -11.046875 C 10.976562 -11.429688 10.363281 -11.722656 9.65625 -11.921875 C 8.945312 -12.117188 8.222656 -12.21875 7.484375 -12.21875 C 6.234375 -12.21875 5.257812 -11.992188 4.5625 -11.546875 C 3.863281 -11.097656 3.515625 -10.488281 3.515625 -9.71875 C 3.515625 -9.269531 3.660156 -8.90625 3.953125 -8.625 C 4.253906 -8.34375 4.625 -8.132812 5.0625 -8 C 5.507812 -7.863281 6.113281 -7.71875 6.875 -7.5625 C 7.8125 -7.351562 8.570312 -7.144531 9.15625 -6.9375 C 9.738281 -6.738281 10.238281 -6.414062 10.65625 -5.96875 C 11.070312 -5.519531 11.28125 -4.910156 11.28125 -4.140625 C 11.28125 -2.804688 10.726562 -1.757812 9.625 -1 C 8.519531 -0.25 7.050781 0.125 5.21875 0.125 Z M 5.21875 0.125 "/></g></g></g><g fill="#ffffff" fill-opacity="1"><g transform="translate(384.641803, 42.003854)"><g><path d="M 4.203125 -4.140625 C 4.128906 -3.722656 4.09375 -3.4375 4.09375 -3.28125 C 4.09375 -2.0625 4.753906 -1.453125 6.078125 -1.453125 C 6.859375 -1.453125 7.5625 -1.6875 8.1875 -2.15625 L 8.625 -0.75 C 7.84375 -0.164062 6.828125 0.125 5.578125 0.125 C 4.554688 0.125 3.742188 -0.148438 3.140625 -0.703125 C 2.535156 -1.253906 2.234375 -2.019531 2.234375 -3 C 2.234375 -3.382812 2.269531 -3.738281 2.34375 -4.0625 L 3.9375 -12.140625 L 1.515625 -12.140625 L 1.796875 -13.703125 L 4.25 -13.703125 L 4.84375 -16.703125 L 6.703125 -16.703125 L 6.09375 -13.703125 L 10.265625 -13.703125 L 9.953125 -12.140625 L 5.78125 -12.140625 Z M 4.203125 -4.140625 "/></g></g></g><g fill="#ffffff" fill-opacity="1"><g transform="translate(395.22317, 42.003854)"><g><path d="M 5.234375 -11.203125 C 5.847656 -12.085938 6.613281 -12.742188 7.53125 -13.171875 C 8.445312 -13.597656 9.5625 -13.8125 10.875 -13.8125 L 10.53125 -12.015625 L 10.015625 -12.046875 C 8.535156 -12.046875 7.320312 -11.617188 6.375 -10.765625 C 5.425781 -9.910156 4.785156 -8.640625 4.453125 -6.953125 L 3.078125 0 L 1.21875 0 L 3.9375 -13.703125 L 5.703125 -13.703125 Z M 5.234375 -11.203125 "/></g></g></g><g fill="#ffffff" fill-opacity="1"><g transform="translate(405.674223, 42.003854)"><g><path d="M 16.46875 -13.703125 L 13.734375 0 L 11.96875 0 L 12.40625 -2.15625 C 11.75 -1.425781 10.96875 -0.863281 10.0625 -0.46875 C 9.15625 -0.0703125 8.15625 0.125 7.0625 0.125 C 5.894531 0.125 4.859375 -0.109375 3.953125 -0.578125 C 3.054688 -1.046875 2.351562 -1.71875 1.84375 -2.59375 C 1.34375 -3.46875 1.09375 -4.5 1.09375 -5.6875 C 1.09375 -7.226562 1.425781 -8.613281 2.09375 -9.84375 C 2.757812 -11.082031 3.679688 -12.050781 4.859375 -12.75 C 6.046875 -13.457031 7.367188 -13.8125 8.828125 -13.8125 C 10.140625 -13.8125 11.238281 -13.554688 12.125 -13.046875 C 13.007812 -12.535156 13.648438 -11.800781 14.046875 -10.84375 L 14.625 -13.703125 Z M 7.453125 -1.515625 C 8.578125 -1.515625 9.59375 -1.785156 10.5 -2.328125 C 11.40625 -2.878906 12.113281 -3.644531 12.625 -4.625 C 13.132812 -5.601562 13.390625 -6.703125 13.390625 -7.921875 C 13.390625 -9.265625 12.992188 -10.3125 12.203125 -11.0625 C 11.421875 -11.820312 10.316406 -12.203125 8.890625 -12.203125 C 7.753906 -12.203125 6.734375 -11.921875 5.828125 -11.359375 C 4.929688 -10.804688 4.222656 -10.035156 3.703125 -9.046875 C 3.191406 -8.066406 2.9375 -6.972656 2.9375 -5.765625 C 2.9375 -4.421875 3.332031 -3.375 4.125 -2.625 C 4.914062 -1.882812 6.023438 -1.515625 7.453125 -1.515625 Z M 7.453125 -1.515625 "/></g></g></g><g fill="#ffffff" fill-opacity="1"><g transform="translate(423.344587, 42.003854)"><g><path d="M 10.609375 -13.8125 C 11.773438 -13.8125 12.8125 -13.578125 13.71875 -13.109375 C 14.632812 -12.640625 15.34375 -11.96875 15.84375 -11.09375 C 16.351562 -10.226562 16.609375 -9.207031 16.609375 -8.03125 C 16.609375 -6.476562 16.269531 -5.082031 15.59375 -3.84375 C 14.925781 -2.601562 14 -1.628906 12.8125 -0.921875 C 11.632812 -0.222656 10.304688 0.125 8.828125 0.125 C 7.523438 0.125 6.429688 -0.128906 5.546875 -0.640625 C 4.660156 -1.148438 4.019531 -1.890625 3.625 -2.859375 L 2.0625 5.0625 L 0.203125 5.0625 L 3.9375 -13.703125 L 5.703125 -13.703125 L 5.265625 -11.515625 C 5.921875 -12.265625 6.703125 -12.832031 7.609375 -13.21875 C 8.515625 -13.613281 9.515625 -13.8125 10.609375 -13.8125 Z M 8.8125 -1.515625 C 9.9375 -1.515625 10.945312 -1.785156 11.84375 -2.328125 C 12.738281 -2.878906 13.441406 -3.640625 13.953125 -4.609375 C 14.460938 -5.585938 14.71875 -6.691406 14.71875 -7.921875 C 14.71875 -9.265625 14.320312 -10.3125 13.53125 -11.0625 C 12.75 -11.820312 11.644531 -12.203125 10.21875 -12.203125 C 9.082031 -12.203125 8.066406 -11.925781 7.171875 -11.375 C 6.285156 -10.832031 5.582031 -10.066406 5.0625 -9.078125 C 4.550781 -8.097656 4.296875 -6.992188 4.296875 -5.765625 C 4.296875 -4.421875 4.691406 -3.375 5.484375 -2.625 C 6.273438 -1.882812 7.382812 -1.515625 8.8125 -1.515625 Z M 8.8125 -1.515625 "/></g></g></g></svg>